# xmcd
#
# Track frame offsets: 
#        150
#        14052
#        25586
#        35918
#        47940
#        65449
#        77881
#        95942
#        116434
#        125406
#        143279
#        156206
#        171739
#        186103
#        202637
#        220002
#
# Disc length: 3116 seconds
#
# Revision: 0
# Processed by: cddbd v1.5.2PL0 Copyright (c) Steve Scherf et al.
# Submitted via: ExactAudioCopy v1.0b3
#
DISCID=e20c2a10
DTITLE=Corey Harris - Fulton Blues [Deluxe Edition]
DYEAR=2014
DGENRE=Blues
TTITLE0=Crying Blues
TTITLE1=Underground
TTITLE2=J. Gilly BLues
TTITLE3=Black Woman Gates
TTITLE4=Tallahatchie
TTITLE5=Fulton Blues
TTITLE6=Devil Got My Woman
TTITLE7=House Negro Blues
TTITLE8=Devil Got My Woman
TTITLE9=Catfish Blues
TTITLE10=That Will Never Happen No More
TTITLE11=Lynch Blues
TTITLE12=Maggie Walker Blues
TTITLE13=Fat Duck's Groove
TTITLE14=Better Way (bonus track)
TTITLE15=Esta Loco (bonus track)
EXTD=
EXTT0=
EXTT1=
EXTT2=
EXTT3=
EXTT4=
EXTT5=
EXTT6=
EXTT7=
EXTT8=
EXTT9=
EXTT10=
EXTT11=
EXTT12=
EXTT13=
EXTT14=
EXTT15=
PLAYORDER=
